<?xml version="1.0" encoding="UTF-8"?>
<svg version="1.1" xmlns="http://www.w3.org/2000/svg" width="144" height="144">
<path d="M0 0 C8.3822275 5.19873343 14.29662912 11.83188677 17.5546875 21.140625 C18.2421875 24.390625 18.2421875 24.390625 18.2421875 28.390625 C20.06556641 28.37322266 20.06556641 28.37322266 21.92578125 28.35546875 C23.51041514 28.34609222 25.09505068 28.33699187 26.6796875 28.328125 C27.48212891 28.31974609 28.28457031 28.31136719 29.11132812 28.30273438 C31.15513971 28.2941107 33.19902652 28.3383435 35.2421875 28.390625 C36.2421875 29.390625 36.2421875 29.390625 36.33984375 32.33203125 C36.32824219 33.52699219 36.31664063 34.72195312 36.3046875 35.953125 C36.29566406 37.15066406 36.28664063 38.34820312 36.27734375 39.58203125 C36.26574219 40.50886719 36.25414063 41.43570313 36.2421875 42.390625 C37.5415625 42.37 38.8409375 42.349375 40.1796875 42.328125 C41.53384383 42.30663046 42.88974833 42.31914301 44.2421875 42.390625 C46.10674096 44.25517846 45.36877435 46.92468848 45.37771606 49.40583801 C45.37467972 50.70251656 45.37467972 50.70251656 45.37158203 52.02539062 C45.37421051 53.38382332 45.37421051 53.38382332 45.37689209 54.7696991 C45.38131204 57.77877693 45.37837211 60.78779652 45.375 63.796875 C45.375673 65.87813325 45.37664299 67.95939143 45.37789917 70.04064941 C45.37937634 74.40878038 45.37722098 78.77689093 45.37255859 83.14501953 C45.3668613 88.75777053 45.3701402 94.37047372 45.37613106 99.98322296 C45.37973616 104.28273889 45.37859832 108.58224338 45.37600327 112.88175964 C45.37533386 114.95191961 45.3761629 117.0220806 45.37848282 119.09223938 C45.38100852 121.98014086 45.37716992 124.86796378 45.37158203 127.75585938 C45.37360626 128.62031174 45.37563049 129.4847641 45.37771606 130.37541199 C45.35644987 136.27636263 45.35644987 136.27636263 44.2421875 137.390625 C42.68830587 137.48867365 41.12996986 137.51694362 39.57299805 137.51760864 C38.05855606 137.52183838 38.05855606 137.52183838 36.51351929 137.52615356 C34.83813583 137.52311722 34.83813583 137.52311722 33.12890625 137.52001953 C31.37545395 137.52264801 31.37545395 137.52264801 29.58657837 137.52532959 C26.37178311 137.52898764 23.15702872 137.52811476 19.94223404 137.5249505 C16.58477947 137.52242642 13.22732772 137.52476458 9.86987305 137.52633667 C4.23062649 137.52815822 -1.40860699 137.52575243 -7.04785156 137.52099609 C-13.5763151 137.5155535 -20.10474741 137.51731616 -26.63321018 137.5228225 C-32.22895609 137.52735404 -37.82469257 137.52800398 -43.42043972 137.52538383 C-46.76667734 137.52382128 -50.11290027 137.52362669 -53.45913696 137.52692032 C-57.18762355 137.52944514 -60.91604923 137.52560864 -64.64453125 137.52001953 C-65.76145355 137.52204376 -66.87837585 137.52406799 -68.02914429 137.52615356 C-69.03877228 137.52333374 -70.04840027 137.52051392 -71.08862305 137.51760864 C-71.9713237 137.51723162 -72.85402435 137.51685459 -73.76347351 137.51646614 C-75.7578125 137.390625 -75.7578125 137.390625 -76.7578125 136.390625 C-76.85837941 133.50456484 -76.89396625 130.64239925 -76.88720703 127.75585938 C-76.88895935 126.85023758 -76.89071167 125.94461578 -76.89251709 125.0115509 C-76.89693704 122.00247307 -76.89399711 118.99345348 -76.890625 115.984375 C-76.891298 113.90311675 -76.89226799 111.82185857 -76.89352417 109.74060059 C-76.89500134 105.37246962 -76.89284598 101.00435907 -76.88818359 96.63623047 C-76.8824863 91.02347947 -76.8857652 85.41077628 -76.89175606 79.79802704 C-76.89536116 75.49851111 -76.89422332 71.19900662 -76.89162827 66.89949036 C-76.89095886 64.82933039 -76.8917879 62.7591694 -76.89410782 60.68901062 C-76.89663352 57.80110914 -76.89279492 54.91328622 -76.88720703 52.02539062 C-76.88923126 51.16093826 -76.89125549 50.2964859 -76.89334106 49.40583801 C-76.87207487 43.50488737 -76.87207487 43.50488737 -75.7578125 42.390625 C-73.08722399 42.24947339 -70.43349012 42.34815393 -67.7578125 42.390625 C-67.76941406 41.46378906 -67.78101563 40.53695312 -67.79296875 39.58203125 C-67.80199219 38.38449219 -67.81101562 37.18695313 -67.8203125 35.953125 C-67.83191406 34.75816406 -67.84351563 33.56320313 -67.85546875 32.33203125 C-67.7578125 29.390625 -67.7578125 29.390625 -66.7578125 28.390625 C-63.89513683 28.31737332 -61.0570935 28.29824295 -58.1953125 28.328125 C-57.38900391 28.33263672 -56.58269531 28.33714844 -55.75195312 28.34179688 C-53.75387494 28.35361982 -51.75583467 28.37155586 -49.7578125 28.390625 C-49.62632813 27.153125 -49.49484375 25.915625 -49.359375 24.640625 C-48.30913834 16.32655637 -43.76815303 10.08399017 -37.7578125 4.390625 C-27.22150203 -3.65936075 -12.19237168 -5.82934942 0 0 Z " fill="#030405" transform="translate(87.7578125,4.609375)"/>
<path d="M0 0 C4.29 0 8.58 0 13 0 C13.33 1.65 13.66 3.3 14 5 C9.545 5.495 9.545 5.495 5 6 C5 23.16 5 40.32 5 58 C16.22 58 27.44 58 39 58 C39.33 49.75 39.66 41.5 40 33 C44 37 44 37 46 40 C49.99853991 38.66715336 50.78497669 36.47020318 53 33 C53.33 33 53.66 33 54 33 C54.495 45.375 54.495 45.375 55 58 C66.22 58 77.44 58 89 58 C89 40.84 89 23.68 89 6 C86.03 5.67 83.06 5.34 80 5 C80.33 3.35 80.66 1.7 81 0 C85.29 0 89.58 0 94 0 C94 29.7 94 59.4 94 90 C55 90 55 90 50 86 C48.70512984 82.11538953 48.8767396 78.44116044 48.90234375 74.39453125 C48.9037587 73.55532639 48.90517365 72.71612152 48.90663147 71.85148621 C48.91222785 69.17178784 48.92477965 66.4921731 48.9375 63.8125 C48.94251547 61.99544392 48.94707829 60.17838652 48.95117188 58.36132812 C48.96219609 53.90751987 48.97945822 49.45377411 49 45 C47.68 45 46.36 45 45 45 C45.01571045 46.12494873 45.0314209 47.24989746 45.04760742 48.40893555 C45.10201216 52.59278165 45.13638836 56.77659662 45.16479492 60.96069336 C45.17985755 62.76966617 45.20031177 64.5786026 45.22631836 66.38745117 C45.2628132 68.99146515 45.27975157 71.5949952 45.29296875 74.19921875 C45.30845261 75.00461594 45.32393646 75.81001312 45.33988953 76.63981628 C45.34126543 81.25715004 45.00846192 84.26021386 42 88 C30.33809621 95.77460253 14.01586403 90 0 90 C0 60.3 0 30.6 0 0 Z " fill="#F0F0F0" transform="translate(25,38)"/>
<path d="M0 0 C6.84219551 4.11622121 10.4910614 10.54410825 13 18 C14.4235818 27.22611413 12.74696048 35.18025288 7.71484375 42.99609375 C3.47608604 48.48640667 -2.28854549 51.7628485 -8.8125 53.9375 C-11.99923721 55.48534379 -13.14712262 58.06095313 -15 61 C-15.66 61 -16.32 61 -17 61 C-17.55945313 60.08089844 -18.11890625 59.16179687 -18.6953125 58.21484375 C-21.42924855 54.40123465 -23.60475966 53.40375417 -27.875 51.5625 C-35.73933161 47.91329653 -39.69269974 44.18097214 -43.375 36.375 C-46.42972801 27.83211657 -46.24747489 19.80552879 -42.4375 11.5625 C-39.65084019 6.62073646 -36.82536223 3.00465854 -32 0 C-31.34386719 -0.40992188 -30.68773437 -0.81984375 -30.01171875 -1.2421875 C-20.40988521 -6.3327391 -9.287759 -5.21821089 0 0 Z " fill="#EEA644" transform="translate(88,11)"/>
<path d="M0 0 C4.29 0 8.58 0 13 0 C13.33 1.65 13.66 3.3 14 5 C9.545 5.495 9.545 5.495 5 6 C5 23.16 5 40.32 5 58 C16.22 58 27.44 58 39 58 C39.33 49.75 39.66 41.5 40 33 C47 40 47 40 47 45 C46.34 45 45.68 45 45 45 C45.01571045 46.12494873 45.0314209 47.24989746 45.04760742 48.40893555 C45.10201216 52.59278165 45.13638836 56.77659662 45.16479492 60.96069336 C45.17985755 62.76966617 45.20031177 64.5786026 45.22631836 66.38745117 C45.2628132 68.99146515 45.27975157 71.5949952 45.29296875 74.19921875 C45.30845261 75.00461594 45.32393646 75.81001312 45.33988953 76.63981628 C45.34126543 81.25715004 45.00846192 84.26021386 42 88 C30.33809621 95.77460253 14.01586403 90 0 90 C0 60.3 0 30.6 0 0 Z " fill="#CACACA" transform="translate(25,38)"/>
<path d="M0 0 C1.32 0 2.64 0 4 0 C4.33 26.4 4.66 52.8 5 80 C15.1784375 80.0928125 15.1784375 80.0928125 25.5625 80.1875 C28.75595093 80.22846802 28.75595093 80.22846802 32.01391602 80.27026367 C33.71890701 80.27903315 35.42390432 80.28667599 37.12890625 80.29296875 C37.99994995 80.30831665 38.87099365 80.32366455 39.76843262 80.33947754 C45.27431497 80.3418208 49.13762648 79.65224037 54 77 C54.33 76.34 54.66 75.68 55 75 C55.66 75 56.32 75 57 75 C58 76 59 77 60 78 C62.91255478 79.73395555 65.02755701 80.24689672 68.40136719 80.22705078 C69.27390137 80.22680908 70.14643555 80.22656738 71.04541016 80.22631836 C71.95339355 80.21608643 72.86137695 80.20585449 73.796875 80.1953125 C75.05878662 80.19229126 75.05878662 80.19229126 76.34619141 80.18920898 C79.48084994 80.17876577 82.6154306 80.15084316 85.75 80.125 C92.7625 80.08375 99.775 80.0425 107 80 C107.33 53.6 107.66 27.2 108 0 C109.32 0 110.64 0 112 0 C112 28.05 112 56.1 112 85 C75.04 85 38.08 85 0 85 C0 56.95 0 28.9 0 0 Z " fill="#2F78E5" transform="translate(16,52)"/>
<path d="M0 0 C1.98 0 3.96 0 6 0 C6 14.85 6 29.7 6 45 C-2.91 45 -11.82 45 -21 45 C-22.32475107 22.72009563 -22.32475107 22.72009563 -18.76171875 18.09375 C-15.90609044 16.45533809 -13.04545885 15.2391867 -10 14 C-5.57224438 10.1290818 -2.72987921 5.14477237 0 0 Z " fill="#E2F3FB" transform="translate(104,47)"/>
<path d="M0 0 C1.98 0 3.96 0 6 0 C7.87109375 2.1953125 7.87109375 2.1953125 9.4375 5.125 C14.17044506 13.22821802 18.82009253 16.32576716 27 21 C27 28.92 27 36.84 27 45 C18.09 45 9.18 45 0 45 C0 30.15 0 15.3 0 0 Z " fill="#E2F3FB" transform="translate(34,47)"/>
<path d="M0 0 C-0.33 0.66 -0.66 1.32 -1 2 C0.3921875 1.87625 0.3921875 1.87625 1.8125 1.75 C5 2 5 2 6.67578125 3.453125 C8.65335052 7.25659155 8.43571382 10.77701635 8.375 15 C8.38660156 15.80695312 8.39820313 16.61390625 8.41015625 17.4453125 C8.39287051 20.93703236 8.31146378 23.38089407 6.7265625 26.53125 C4.66501909 28.28496113 3.68382312 28.54066399 1 28.5 C0.319375 28.5103125 -0.36125 28.520625 -1.0625 28.53125 C-3 28 -3 28 -4.73828125 26.484375 C-6.53187388 22.95271891 -6.32047935 19.60981097 -6.1875 15.75 C-6.16719727 14.63238281 -6.16719727 14.63238281 -6.14648438 13.4921875 C-6.11127204 11.66114584 -6.05746851 9.83047831 -6 8 C-11.45183635 11.37565758 -14.03368218 13.94639234 -16 20 C-17.00845277 25.30981254 -15.85715348 29.54160443 -13.2890625 34.234375 C-11.26148716 37.01153881 -9.00157978 38.36277467 -6 40 C-5.71125 39.21625 -5.4225 38.4325 -5.125 37.625 C-4 35 -4 35 -2 33 C1.69968311 33.13453393 4.12262434 33.25971428 7 35.6875 C8.37694267 38.87167993 7.980224 40.70924801 7 44 C5.4375 45.875 5.4375 45.875 4 47 C4.33 47.66 4.66 48.32 5 49 C-2.57611546 49.61097705 -7.68272453 48.30201239 -14 44 C-20.77163535 38.15581189 -23.39271969 31.78233241 -24.5 23.0625 C-24.2293644 16.61879518 -20.62658129 10.96901946 -16.625 6.125 C-5.6 -2.8 -5.6 -2.8 0 0 Z " fill="#EDCA60" transform="translate(71,12)"/>
<path d="M0 0 C0.04898438 1.12019531 0.09796875 2.24039062 0.1484375 3.39453125 C0.22347856 4.86721203 0.29902582 6.33986707 0.375 7.8125 C0.4059375 8.55048828 0.436875 9.28847656 0.46875 10.04882812 C0.67346148 13.81893115 0.86433827 15.79650741 3 19 C4.901994 19.47558206 4.901994 19.47558206 7 19.375 C8.051875 19.38660156 8.051875 19.38660156 9.125 19.3984375 C11.41058594 19.140914 11.41058594 19.140914 13 16 C13.30066154 13.24582682 13.50925299 10.57354853 13.625 7.8125 C13.66367188 7.06291016 13.70234375 6.31332031 13.7421875 5.54101562 C13.83628216 3.69440801 13.91922319 1.8472381 14 0 C19.29299276 1.91597589 21.56992262 4.35435684 24.25 9.3125 C26.03846199 15.72115545 25.38101115 20.51048518 22.21484375 26.234375 C20.49241865 28.73770666 18.55738749 30.3848079 16 32 C15.34 32 14.68 32 14 32 C13.608125 31.195625 13.21625 30.39125 12.8125 29.5625 C11.1474527 26.59877264 11.1474527 26.59877264 7.3125 26.1875 C5.6728125 26.0946875 5.6728125 26.0946875 4 26 C2.02 28.97 2.02 28.97 0 32 C-5.33639126 30.369436 -7.64390486 27.50877601 -10.25 22.6875 C-12.03846199 16.27884455 -11.38101115 11.48951482 -8.21484375 5.765625 C-6.16153212 2.78139073 -3.78581532 0 0 0 Z " fill="#FAE59A" transform="translate(65,20)"/>
<path d="M0 0 C6.80686722 0.93454939 12.84358115 2.21899494 18 7 C23.04277193 13.77862807 25.55724601 19.50199832 25 28 C23.1062381 35.9927892 20.17167086 41.84273343 13.125 46.375 C9.27633704 48.56122275 6.51321621 49.71261309 2 49 C6.04692806 41.62241433 6.04692806 41.62241433 10.0625 39 C14.46520393 36.00241435 16.39354484 32.19317209 17.3828125 26.984375 C17.69493151 21.69915976 16.11485044 17.25791482 13 13 C11.04402816 11.60287726 9.04563599 10.26220093 7 9 C6.2265625 7.700625 6.2265625 7.700625 5.4375 6.375 C3.67228277 3.45855414 2.20428224 2.95262445 -1 2 C-0.67 1.34 -0.34 0.68 0 0 Z " fill="#EDCB60" transform="translate(72,11)"/>
<path d="M0 0 C0.680625 -0.0103125 1.36125 -0.020625 2.0625 -0.03125 C4 0.5 4 0.5 5.7265625 1.96875 C7.63825971 5.76868802 7.43529219 9.30634332 7.375 13.5 C7.38660156 14.30695312 7.39820312 15.11390625 7.41015625 15.9453125 C7.39287051 19.43703236 7.31146378 21.88089407 5.7265625 25.03125 C3.66501909 26.78496113 2.68382312 27.04066399 0 27 C-0.680625 27.0103125 -1.36125 27.020625 -2.0625 27.03125 C-4 26.5 -4 26.5 -5.7265625 25.03125 C-7.63825971 21.23131198 -7.43529219 17.69365668 -7.375 13.5 C-7.38660156 12.69304688 -7.39820312 11.88609375 -7.41015625 11.0546875 C-7.39287051 7.56296764 -7.31146378 5.11910593 -5.7265625 1.96875 C-3.66501909 0.21503887 -2.68382312 -0.04066399 0 0 Z " fill="#0C0B08" transform="translate(72,13.5)"/>
<path d="M0 0 C1.98 0 3.96 0 6 0 C6 14.85 6 29.7 6 45 C-2.91 45 -11.82 45 -21 45 C-21 37.08 -21 29.16 -21 21 C-20.34 20.67 -19.68 20.34 -19 20 C-19.33 26.93 -19.66 33.86 -20 41 C-17.2775 40.9175 -14.555 40.835 -11.75 40.75 C-10.89889648 40.73420898 -10.04779297 40.71841797 -9.17089844 40.70214844 C-8.4905957 40.6715332 -7.81029297 40.64091797 -7.109375 40.609375 C-6.07248535 40.5779541 -6.07248535 40.5779541 -5.01464844 40.54589844 C-1.97227366 39.72152253 -0.84110022 38.55312792 1 36 C1.34939929 33.24913809 1.46885179 30.9116444 1.390625 28.171875 C1.38496521 27.42286926 1.37930542 26.67386353 1.37347412 25.90216064 C1.35114057 23.517448 1.30095386 21.13425592 1.25 18.75 C1.22993091 17.13023009 1.21168085 15.51043654 1.1953125 13.890625 C1.15128624 9.92650034 1.08228298 5.96350768 1 2 C0.01 2.495 0.01 2.495 -1 3 C-0.67 2.01 -0.34 1.02 0 0 Z " fill="#BDE3F5" transform="translate(104,47)"/>
<path d="M0 0 C3.5 0.4375 3.5 0.4375 5.375 1.8125 C8.1605622 5.83608985 7.93551659 9.67968667 7.5 14.4375 C6.4375 17.4375 6.4375 17.4375 4.5 19.4375 C1.0625 20.5 1.0625 20.5 -2.5 20.4375 C-5.37156299 18.3068207 -6.38257387 17.11801677 -6.99609375 13.5625 C-6.97675781 12.53125 -6.95742188 11.5 -6.9375 10.4375 C-6.93621094 9.40625 -6.93492188 8.375 -6.93359375 7.3125 C-6.2020245 2.46173455 -4.91662975 0.61457872 0 0 Z " fill="#FDFEFE" transform="translate(42.5,58.5625)"/>
<path d="M0 0 C1.65 0.66 3.3 1.32 5 2 C5 9.92 5 17.84 5 26 C-3.91 26 -12.82 26 -22 26 C-22 24.68 -22 23.36 -22 22 C-20.81921875 21.93941406 -19.6384375 21.87882812 -18.421875 21.81640625 C-16.8645723 21.73197418 -15.30728121 21.64732751 -13.75 21.5625 C-12.58404297 21.50352539 -12.58404297 21.50352539 -11.39453125 21.44335938 C-10.64042969 21.40146484 -9.88632812 21.35957031 -9.109375 21.31640625 C-8.41811523 21.27974854 -7.72685547 21.24309082 -7.01464844 21.20532227 C-4.64379361 21.0121859 -4.64379361 21.0121859 -1 20 C-0.67 13.4 -0.34 6.8 0 0 Z " fill="#BAE1F5" transform="translate(56,66)"/>
<path d="M0 0 C3 1 3 1 4 3 C5.07879429 13.57218403 5.07879429 13.57218403 1.875 17.8125 C-1.628311 19.25951976 -3.40678474 19.11788919 -7 18 C-9 16 -9 16 -9.4375 12.1875 C-9.3552379 8.69452477 -9.06800499 8.08500624 -6.75 5.1875 C-5.8425 4.465625 -4.935 3.74375 -4 3 C-3.29875 2.38125 -2.5975 1.7625 -1.875 1.125 C-1.25625 0.75375 -0.6375 0.3825 0 0 Z " fill="#FDFDFD" transform="translate(95,60)"/>
<path d="M0 0 C11.88 0 23.76 0 36 0 C36 1.65 36 3.3 36 5 C24.12 5 12.24 5 0 5 C0 3.35 0 1.7 0 0 Z " fill="#090909" transform="translate(79,101)"/>
<path d="M0 0 C11.88 0 23.76 0 36 0 C36 1.65 36 3.3 36 5 C24.12 5 12.24 5 0 5 C0 3.35 0 1.7 0 0 Z " fill="#070707" transform="translate(29,101)"/>
<path d="M0 0 C2 1.6875 2 1.6875 3 4 C2.77962372 7.67293796 2.63033454 9.36966546 0 12 C-7.1372549 12.67973856 -7.1372549 12.67973856 -10.0625 10.375 C-11.33302894 7.15632669 -10.98013473 5.29045231 -10 2 C-7.54755562 -2.22365421 -4.26175901 -1.14154259 0 0 Z " fill="#23221F" transform="translate(76,46)"/>
<path d="M0 0 C8.91 0 17.82 0 27 0 C27 1.65 27 3.3 27 5 C18.09 5 9.18 5 0 5 C0 3.35 0 1.7 0 0 Z " fill="#090909" transform="translate(79,110)"/>
<path d="M0 0 C8.91 0 17.82 0 27 0 C27 1.65 27 3.3 27 5 C18.09 5 9.18 5 0 5 C0 3.35 0 1.7 0 0 Z " fill="#070707" transform="translate(29,110)"/>
<path d="M0 0 C0.99 0.33 1.98 0.66 3 1 C3 6.28 3 11.56 3 17 C1.68 17 0.36 17 -1 17 C-1.02684679 14.35409986 -1.04676357 11.70846904 -1.0625 9.0625 C-1.07087891 8.30775391 -1.07925781 7.55300781 -1.08789062 6.77539062 C-1.09652441 4.85005687 -1.05224333 2.92464419 -1 1 C-0.67 0.67 -0.34 0.34 0 0 Z " fill="#FEFEFE" transform="translate(71,18)"/>
<path d="M0 0 C1.65 0 3.3 0 5 0 C5 1.65 5 3.3 5 5 C3.35 5 1.7 5 0 5 C0 3.35 0 1.7 0 0 Z " fill="#111111" transform="translate(110,110)"/>
<path d="M0 0 C1.32 0 2.64 0 4 0 C4 1.65 4 3.3 4 5 C2.68 5 1.36 5 0 5 C0 3.35 0 1.7 0 0 Z " fill="#070707" transform="translate(61,110)"/>
</svg>
