<svg xmlns="http://www.w3.org/2000/svg" viewBox="0 0 32 32" width="32" height="32">
  <circle cx="16" cy="16" r="16" fill="#25D366"/>
  <path fill="#fff" d="M23.6 19.5c-.3-.1-1.7-.8-2-1-0.3-.2-.5-.2-.7.2-.2.3-.7 1-0.9 1.2-.2.2-.4.2-.7.1-0.3-.1-1.3-.5-2.5-1.5-0.9-.8-1.5-1.7-1.7-2-.2-.3 0-.5.1-.7 0.1-.1 0.2-.3 0.3-.4s0.1-.2 0.2-.3c0.1-.1 0-.2 0-.3s-0.7-1.7-1-2.3c-0.3-.6-.6-.5-0.8-.5s-0.4 0-.6 0c-0.2 0-.5 0.1-.7 0.3s-0.8 0.8-0.8 2c0 1.2 0.8 2.3 1.4 3.1 0.6 0.8 2.2 2.6 4.5 3.5 0.6 0.2 1.1 0.2 1.5 0.1 0.5-0.1 1.6-0.7 1.8-1.4s0.2-1.3 0.1-1.4z"/>
</svg>